<?xml version="1.0" encoding="UTF-8"?>
<svg width="4541px" height="4359px" viewBox="0 0 4541 4359" version="1.1" xmlns="http://www.w3.org/2000/svg" xmlns:xlink="http://www.w3.org/1999/xlink">
    <!-- Generator: Sketch 53.2 (72643) - https://sketchapp.com -->
    <title>Artboard</title>
    <desc>Created with Sketch.</desc>
    <g id="Artboard" stroke="none" stroke-width="1" fill="none" fill-rule="evenodd">
        <g id="Illustration_Homepage_WS-WKC_AP" fill="#EAEAEA" fill-rule="nonzero">
            <path d="M0.0411243792,3533.92461 C-0.976503475,3581.0342 16.9277269,3626.59198 49.7622834,3660.44141 C82.59684,3694.29084 127.63195,3713.61777 174.82758,3714.11349 L1567.41966,3714.11349 L1567.41966,4017.58949 L978.465303,4017.58949 C962.726407,4017.58949 949.967511,4030.32738 949.967511,4046.04037 C949.967511,4061.75335 962.726407,4074.49124 978.465303,4074.49124 L2194.37108,4074.49124 C2210.10997,4074.49124 2222.86887,4061.75335 2222.86887,4046.04037 C2222.86887,4030.32738 2210.10997,4017.58949 2194.37108,4017.58949 L1624.41525,4017.58949 L1624.41525,3714.11349 L2977.11042,3714.11349 C3077.75256,3714.16058 3160.21512,3634.35399 3163.29599,3533.92461 L3163.29599,2054.47908 C3163.29599,2038.7661 3150.5371,2026.02821 3134.7982,2026.02821 C3119.0593,2026.02821 3106.30041,2038.7661 3106.30041,2054.47908 L3106.30041,3277.86673 L57.0367076,3277.86673 L57.0367076,1530.98297 C55.4879642,1499.78491 66.435556,1469.25351 87.4643065,1446.12438 C108.493057,1422.99525 137.874968,1409.16899 169.128021,1407.69585 L174.82758,1407.69585 L2004.3858,1400.10895 C2020.1247,1400.10895 2032.88359,1387.37106 2032.88359,1371.65807 C2032.88359,1355.94509 2020.1247,1343.2072 2004.3858,1343.2072 L174.82758,1350.7941 C127.966598,1351.29444 83.2243229,1370.3605 50.4449232,1403.79735 C17.6655234,1437.23421 -0.465465873,1482.30247 0.0411243792,1529.08625 L0.0411243792,3533.92461 Z M57.0367076,3334.76848 L3106.30041,3334.76848 L3106.30041,3533.92461 C3102.31745,3602.49971 3045.90834,3656.33142 2977.11042,3657.21174 L167.228168,3657.21174 C104.689589,3649.5895 57.526986,3596.82187 57.0367076,3533.92461 L57.0367076,3334.76848 Z M3833.94402,2845.41342 L3868.14137,2972.494 C3872.74286,2987.89321 3888.57085,2997.0417 3904.23857,2993.35798 C3911.59965,2991.17538 3917.76697,2986.11939 3921.34338,2979.33541 C3924.91978,2972.55143 3925.60258,2964.61361 3923.2371,2957.3202 L3887.1399,2824.54945 C3885.78662,2818.98362 3883.18852,2813.79598 3879.54049,2809.37565 L3708.55374,2651.94747 C3701.40328,2645.32571 3691.19619,2643.14208 3681.9558,2646.25729 C3672.43098,2648.28695 3664.99027,2655.7154 3662.95727,2665.22454 L3594.56257,2885.24465 C3592.68064,2890.77973 3592.68064,2896.78009 3594.56257,2902.31517 L3670.55668,3186.82393 C3673.8827,3198.84775 3684.66599,3207.30639 3697.15462,3207.6879 L3704.75403,3207.6879 C3720.17864,3203.09399 3729.34221,3187.29206 3725.65241,3171.65013 L3651.55815,2894.72827 L3702.85418,2725.91975 L3833.94402,2845.41342 Z M2194.37108,1420.97292 L3072.10306,1917.91488 C3086.28484,1926.90291 3102.80456,1931.52081 3119.59938,1931.19196 C3151.82124,1932.87735 3182.13783,1915.89849 3197.49334,1887.56728 L3613.5611,1178.19212 C3685.53132,1055.63705 3704.7218,909.208375 3666.75698,772.29296 C3623.17798,615.22313 3518.5228,482.05866 3376.0795,402.431578 C3089.20173,239.313225 2730.12956,322.769127 2574.34163,588.310632 L2158.27387,1295.78907 C2146.36102,1315.81867 2143.59541,1339.97792 2150.67446,1362.17445 C2156.35674,1387.01501 2172.20576,1408.34157 2194.37108,1420.97292 L2194.37108,1420.97292 Z M2207.67005,1326.13667 L2623.7378,616.761507 C2764.32691,377.774153 3089.20173,303.801877 3347.58171,451.746429 C3476.60783,523.490721 3571.65302,643.637586 3611.66125,785.570035 C3645.90847,908.370978 3628.76836,1039.79029 3564.16493,1149.74124 C3558.46537,1159.22487 3153.79673,1851.5295 3148.09717,1859.1164 C3139.04983,1874.13496 3119.64355,1879.18913 3104.40056,1870.49675 L3100.60085,1870.49675 L2222.86887,1371.65807 C2214.67459,1366.30516 2208.62307,1358.24974 2205.77019,1348.89737 C2202.63355,1341.45738 2203.34319,1332.95573 2207.67005,1326.13667 L2207.67005,1326.13667 Z M3514.76875,3287.35036 L3514.76875,4083.97487 C3514.76875,4099.68785 3527.52765,4112.42575 3543.26655,4112.42575 L4341.20471,4112.42575 C4356.94361,4112.42575 4369.7025,4099.68785 4369.7025,4083.97487 L4369.7025,3287.35036 C4369.7025,3271.63737 4356.94361,3258.89948 4341.20471,3258.89948 L3543.26655,3258.89948 C3527.52765,3258.89948 3514.76875,3271.63737 3514.76875,3287.35036 L3514.76875,3287.35036 Z M3571.76434,3315.80123 L4312.70692,3315.80123 L4312.70692,4055.52399 L3571.76434,4055.52399 L3571.76434,3315.80123 Z M4227.21354,3201.99773 C4242.95244,3201.99773 4255.71134,3189.25984 4255.71134,3173.54685 L4255.71134,2756.26735 C4255.71134,2740.55436 4242.95244,2727.81647 4227.21354,2727.81647 L3999.23121,2727.81647 C3983.49232,2727.81647 3970.73342,2740.55436 3970.73342,2756.26735 L3970.73342,3173.54685 C3970.73342,3189.25984 3983.49232,3201.99773 3999.23121,3201.99773 C4014.97011,3201.99773 4027.729,3189.25984 4027.729,3173.54685 L4027.729,2784.71822 L4198.71575,2784.71822 L4198.71575,3173.54685 C4198.71575,3189.25984 4211.47465,3201.99773 4227.21354,3201.99773 L4227.21354,3201.99773 Z M4373.50221,4302.09825 L28.538916,4302.09825 C12.8000203,4302.09825 0.0411243792,4314.83614 0.0411243792,4330.54912 C0.0411243792,4346.26211 12.8000203,4359 28.538916,4359 L4373.50221,4359 C4389.2411,4359 4402,4346.26211 4402,4330.54912 C4402,4314.83614 4389.2411,4302.09825 4373.50221,4302.09825 Z" id="Shape"></path>
            <path d="M2135.67528,2062.40633 C2093.73608,2062.40633 2059.73764,2096.29137 2059.73764,2138.09067 C2059.73764,2179.88998 2093.73608,2213.77501 2135.67528,2213.77501 C2177.61448,2213.77501 2211.61292,2179.88998 2211.61292,2138.09067 C2211.61292,2096.29137 2177.61448,2062.40633 2135.67528,2062.40633 Z M2135.67528,2157.01176 C2125.19048,2157.01176 2116.69087,2148.5405 2116.69087,2138.09067 C2116.69087,2127.64085 2125.19048,2119.16959 2135.67528,2119.16959 C2146.16008,2119.16959 2154.65969,2127.64085 2154.65969,2138.09067 C2155.27821,2143.27344 2153.47787,2148.45268 2149.77492,2152.14328 C2146.07196,2155.83388 2140.87539,2157.62821 2135.67528,2157.01176 L2135.67528,2157.01176 Z M1926.84677,2289.45934 C1884.90757,2289.45934 1850.90913,2323.34438 1850.90913,2365.14368 C1850.90913,2406.94299 1884.90757,2440.82802 1926.84677,2440.82802 C1968.78597,2440.82802 2002.78441,2406.94299 2002.78441,2365.14368 C2002.78441,2323.34438 1968.78597,2289.45934 1926.84677,2289.45934 Z M1926.84677,2384.06477 C1916.36197,2384.06477 1907.86236,2375.59351 1907.86236,2365.14368 C1907.86236,2354.69385 1916.36197,2346.2226 1926.84677,2346.2226 C1937.33157,2346.2226 1945.83118,2354.69385 1945.83118,2365.14368 C1946.4497,2370.32645 1944.64936,2375.50569 1940.94641,2379.19629 C1937.24346,2382.88689 1932.04688,2384.68122 1926.84677,2384.06477 L1926.84677,2384.06477 Z M2103.40178,2295.13567 L2101.50334,2295.13567 C2086.48865,2295.10238 2074.02767,2306.69384 2073.02673,2321.62519 L2073.02673,2408.66217 C2074.02767,2423.59353 2086.48865,2435.18498 2101.50334,2435.15169 C2108.55653,2435.67184 2115.52685,2433.36876 2120.87144,2428.75223 C2126.21602,2424.13571 2129.49406,2417.5865 2129.97996,2410.55428 L2129.97996,2323.5173 C2130.50788,2316.17017 2127.94253,2308.93573 2122.89979,2303.55082 C2117.85705,2298.16591 2110.79235,2295.11685 2103.40178,2295.13567 L2103.40178,2295.13567 Z M2310.33185,2208.09868 C2317.38503,2208.61883 2324.35536,2206.31575 2329.69995,2201.69922 C2335.04453,2197.0827 2338.32257,2190.53349 2338.80846,2183.50127 L2338.80846,2096.46429 C2338.80846,2081.83453 2326.90901,2069.97477 2312.23029,2069.97477 L2310.33185,2069.97477 C2295.31716,2069.94148 2282.85618,2081.53293 2281.85523,2096.46429 L2281.85523,2183.50127 C2283.76892,2197.68264 2295.97548,2208.22637 2310.33185,2208.09868 L2310.33185,2208.09868 Z M1788.26058,2062.40633 C1746.32138,2062.40633 1712.32294,2096.29137 1712.32294,2138.09067 C1712.32294,2179.88998 1746.32138,2213.77501 1788.26058,2213.77501 C1830.19978,2213.77501 1864.19822,2179.88998 1864.19822,2138.09067 C1864.19822,2096.29137 1830.19978,2062.40633 1788.26058,2062.40633 Z M1788.26058,2157.01176 C1777.77578,2157.01176 1769.27617,2148.5405 1769.27617,2138.09067 C1769.27617,2127.64085 1777.77578,2119.16959 1788.26058,2119.16959 C1798.74538,2119.16959 1807.24499,2127.64085 1807.24499,2138.09067 C1806.36214,2148.15354 1798.35713,2156.13186 1788.26058,2157.01176 L1788.26058,2157.01176 Z M1754.08864,2295.13567 C1747.03546,2294.61552 1740.06513,2296.91861 1734.72054,2301.53513 C1729.37596,2306.15165 1726.09792,2312.70086 1725.61203,2319.73308 L1725.61203,2406.77007 C1725.61203,2421.39982 1737.51148,2433.25958 1752.1902,2433.25958 L1754.08864,2433.25958 C1769.10333,2433.29287 1781.56431,2421.70142 1782.56526,2406.77007 L1782.56526,2319.73308 C1780.65157,2305.55172 1768.44501,2295.00798 1754.08864,2295.13567 L1754.08864,2295.13567 Z M1961.01871,2208.09868 L1962.91715,2208.09868 C1977.93184,2208.13197 1990.39282,2196.54052 1991.39376,2181.60916 L1991.39376,2094.57218 C1990.39282,2079.64083 1977.93184,2068.04937 1962.91715,2068.08266 C1955.86396,2067.56251 1948.89364,2069.8656 1943.54905,2074.48212 C1938.20447,2079.09864 1934.92643,2085.64785 1934.44053,2092.68007 L1934.44053,2179.71706 C1933.91261,2187.06418 1936.47796,2194.29862 1941.5207,2199.68353 C1946.56344,2205.06844 1953.62814,2208.1175 1961.01871,2208.09868 L1961.01871,2208.09868 Z M1336.43163,2639.4994 L1044.07171,2639.4994 C1028.34451,2639.4994 1015.5951,2652.20629 1015.5951,2667.88103 C1015.5951,2683.55577 1028.34451,2696.26265 1044.07171,2696.26265 L1336.43163,2696.26265 C1352.15883,2696.26265 1364.90824,2683.55577 1364.90824,2667.88103 C1364.90824,2652.20629 1352.15883,2639.4994 1336.43163,2639.4994 L1336.43163,2639.4994 Z M725.13363,2336.76205 L307.476615,2336.76205 C291.749415,2336.76205 279,2349.46894 279,2365.14368 C279,2380.81842 291.749415,2393.52531 307.476615,2393.52531 L725.13363,2393.52531 C740.86083,2393.52531 753.610245,2380.81842 753.610245,2365.14368 C753.610245,2349.46894 740.86083,2336.76205 725.13363,2336.76205 Z M725.13363,2942.23675 L307.476615,2942.23675 C291.749415,2942.23675 279,2954.94363 279,2970.61837 C279,2986.29311 291.749415,2999 307.476615,2999 L725.13363,2999 C740.86083,2999 753.610245,2986.29311 753.610245,2970.61837 C753.610245,2954.94363 740.86083,2942.23675 725.13363,2942.23675 Z M725.13363,1920.4982 L307.476615,1920.4982 C291.749415,1920.4982 279,1933.20509 279,1948.87983 C279,1964.55457 291.749415,1977.26146 307.476615,1977.26146 L725.13363,1977.26146 C740.86083,1977.26146 753.610245,1964.55457 753.610245,1948.87983 C753.610245,1933.20509 740.86083,1920.4982 725.13363,1920.4982 Z M725.13363,2639.4994 L307.476615,2639.4994 C291.749415,2639.4994 279,2652.20629 279,2667.88103 C279,2683.55577 291.749415,2696.26265 307.476615,2696.26265 L725.13363,2696.26265 C740.86083,2696.26265 753.610245,2683.55577 753.610245,2667.88103 C753.610245,2652.20629 740.86083,2639.4994 725.13363,2639.4994 Z M2281.85523,2289.45934 C2239.91603,2289.45934 2205.91759,2323.34438 2205.91759,2365.14368 C2205.91759,2406.94299 2239.91603,2440.82802 2281.85523,2440.82802 C2323.79443,2440.82802 2357.79287,2406.94299 2357.79287,2365.14368 C2357.79287,2323.34438 2323.79443,2289.45934 2281.85523,2289.45934 Z M2281.85523,2384.06477 C2271.37043,2384.06477 2262.87082,2375.59351 2262.87082,2365.14368 C2262.87082,2354.69385 2271.37043,2346.2226 2281.85523,2346.2226 C2292.34003,2346.2226 2300.83964,2354.69385 2300.83964,2365.14368 C2299.9568,2375.20655 2291.95178,2383.18486 2281.85523,2384.06477 L2281.85523,2384.06477 Z M4370.14031,927.141286 C4341.63282,927.335038 4313.60626,934.480709 4288.50735,947.954479 L3749.35011,270.579666 C3795.85679,206.964313 3792.55922,119.871315 3741.37437,59.9301851 C3690.18952,-0.0109450071 3604.45627,-17.1794174 3534.01368,18.4052645 C3463.5711,53.9899464 3426.77666,133.054336 3445.01997,209.636169 C3463.26328,286.218002 3531.79009,340.359884 3610.76392,340.587678 C3645.31441,340.156507 3678.97855,329.630438 3707.58441,310.313943 L4242.94477,983.904539 C4214.86984,1015.10263 4199.32344,1055.52316 4199.28062,1097.43104 C4198.94903,1144.0345 4218.22948,1188.64338 4252.43697,1220.41809 L3419.02138,2472.99386 C3414.68244,2479.2482 3413.04299,2486.97624 3414.47051,2494.44574 C3415.89804,2501.91525 3420.27314,2508.50148 3426.61514,2512.72814 C3430.99379,2515.90461 3436.43935,2517.26146 3441.80267,2516.51235 C3451.36392,2516.81248 3460.5084,2512.60602 3466.48241,2505.1597 L4299.898,1252.58393 C4322.05616,1262.27493 4345.94444,1267.42274 4370.14031,1267.7208 C4464.50351,1267.7208 4541,1191.47948 4541,1097.43104 C4541,1003.38261 4464.50351,927.141286 4370.14031,927.141286 L4370.14031,927.141286 Z M3610.76392,283.824425 C3547.85512,283.824425 3496.85746,232.996878 3496.85746,170.29792 C3496.85746,107.598963 3547.85512,56.7714156 3610.76392,56.7714156 C3673.67272,56.7714156 3724.67038,107.598963 3724.67038,170.29792 C3724.67038,232.996878 3673.67272,283.824425 3610.76392,283.824425 Z M4370.14031,1210.95755 C4307.23151,1210.95755 4256.23385,1160.13 4256.23385,1097.43104 C4256.23385,1034.73209 4307.23151,983.904539 4370.14031,983.904539 C4433.04911,983.904539 4484.04677,1034.73209 4484.04677,1097.43104 C4484.04677,1160.13 4433.04911,1210.95755 4370.14031,1210.95755 Z M1336.43163,2942.23675 L1044.07171,2942.23675 C1028.34451,2942.23675 1015.5951,2954.94363 1015.5951,2970.61837 C1015.5951,2986.29311 1028.34451,2999 1044.07171,2999 L1336.43163,2999 C1352.15883,2999 1364.90824,2986.29311 1364.90824,2970.61837 C1364.90824,2954.94363 1352.15883,2942.23675 1336.43163,2942.23675 L1336.43163,2942.23675 Z M1336.43163,2336.76205 L1044.07171,2336.76205 C1028.34451,2336.76205 1015.5951,2349.46894 1015.5951,2365.14368 C1015.5951,2380.81842 1028.34451,2393.52531 1044.07171,2393.52531 L1336.43163,2393.52531 C1352.15883,2393.52531 1364.90824,2380.81842 1364.90824,2365.14368 C1364.90824,2349.46894 1352.15883,2336.76205 1336.43163,2336.76205 L1336.43163,2336.76205 Z M1336.43163,1920.4982 L1044.07171,1920.4982 C1028.34451,1920.4982 1015.5951,1933.20509 1015.5951,1948.87983 C1015.5951,1964.55457 1028.34451,1977.26146 1044.07171,1977.26146 L1336.43163,1977.26146 C1352.15883,1977.26146 1364.90824,1964.55457 1364.90824,1948.87983 C1364.90824,1933.20509 1352.15883,1920.4982 1336.43163,1920.4982 L1336.43163,1920.4982 Z" id="Shape"></path>
            <path d="M1642.44923,2977.36447 C1642.44923,2993.12618 1655.2273,3005.90358 1670.98984,3005.90358 L2650.88407,3005.90358 L2780.26817,3135.2809 C2798.14092,3152.5076 2822.03948,3162.06652 2846.86292,3161.91741 C2871.09069,3162.94791 2894.73369,3154.30132 2912.57978,3137.88377 C2930.42587,3121.46622 2941.00979,3098.62571 2941.99828,3074.39746 L2941.99828,3066.78702 C2942.1474,3041.96488 2932.58798,3018.06758 2915.36038,3000.19576 L2616.63534,2701.48636 L2854.47375,2701.48636 C2870.23629,2701.48636 2883.01436,2688.70896 2883.01436,2672.94724 C2883.01436,2657.18552 2870.23629,2644.40813 2854.47375,2644.40813 L2559.55413,2644.40813 L2531.01352,2615.86901 C2580.29099,2550.98582 2615.30422,2476.4245 2633.75971,2397.06913 L2854.47375,2397.06913 C2870.23629,2397.06913 2883.01436,2384.29174 2883.01436,2368.53002 C2883.01436,2352.7683 2870.23629,2339.9909 2854.47375,2339.9909 L2645.17595,2339.9909 C2650.54383,2308.57105 2653.09092,2276.73412 2652.78678,2244.86052 C2652.78678,1898.10273 2371.66933,1617 2024.89339,1617 C1678.11745,1617 1397,1898.10273 1397,2244.86052 C1397,2591.61831 1678.11745,2872.72105 2024.89339,2872.72105 C2158.26358,2871.94701 2288.03122,2829.35883 2395.9213,2750.95416 L2593.80286,2948.82535 L1670.98984,2948.82535 C1655.2273,2948.82535 1642.44923,2961.60275 1642.44923,2977.36447 L1642.44923,2977.36447 Z M2024.89339,2815.64282 C1709.64253,2815.64282 1454.08122,2560.09488 1454.08122,2244.86052 C1454.08122,1929.62617 1709.64253,1674.07823 2024.89339,1674.07823 C2340.14425,1674.07823 2595.70556,1929.62617 2595.70556,2244.86052 C2595.70556,2560.09488 2340.14425,2815.64282 2024.89339,2815.64282 Z M2443.48898,2716.70722 L2496.76479,2663.4342 L2873.50082,3040.15052 C2879.55637,3048.22416 2882.15649,3058.37257 2880.72919,3068.3632 C2879.30188,3078.35382 2873.96406,3087.3683 2865.88999,3093.42353 C2852.16778,3102.97795 2833.94723,3102.97795 2820.22502,3093.42353 L2443.48898,2716.70722 Z" id="Shape"></path>
            <path d="M2024.0068,1782 C1835.9346,1782 1666.3812,1895.29196 1594.40909,2069.04801 C1522.43698,2242.80406 1562.21982,2442.80593 1695.20695,2575.79305 C1828.19407,2708.78018 2028.19594,2748.56302 2201.95199,2676.59091 C2375.70804,2604.6188 2489,2435.0654 2489,2246.9932 C2489,1990.18455 2280.81545,1782 2024.0068,1782 L2024.0068,1782 Z M2024.0068,2655.04846 C1798.6441,2655.04846 1615.95154,2472.3559 1615.95154,2246.9932 C1615.95154,2021.63051 1798.6441,1838.93794 2024.0068,1838.93794 C2249.36949,1838.93794 2432.06206,2021.63051 2432.06206,2246.9932 C2432.06206,2472.3559 2249.36949,2655.04846 2024.0068,2655.04846 L2024.0068,2655.04846 Z" id="Shape"></path>
        </g>
    </g>
</svg>