<?xml version="1.0" encoding="utf-8"?>
<!-- Generator: Adobe Illustrator 23.0.2, SVG Export Plug-In . SVG Version: 6.00 Build 0)  -->
<svg version="1.1" id="Layer_1" xmlns="http://www.w3.org/2000/svg" xmlns:xlink="http://www.w3.org/1999/xlink" x="0px" y="0px"
	 viewBox="0 0 1927 1545" style="enable-background:new 0 0 1927 1545;" xml:space="preserve">
<style type="text/css">
	.st0{fill:#EAEAEA;}
</style>
<title>Illustration_Homepage_WS-WKC_AP</title>
<desc>Created with Sketch.</desc>
<g>
	<path class="st0" d="M773.3,445.4c-41.9,0-75.9,33.9-75.9,75.7c0,41.8,34,75.7,75.9,75.7s75.9-33.9,75.9-75.7
		C849.2,479.3,815.2,445.4,773.3,445.4z M773.3,540c-10.5,0-19-8.5-19-18.9s8.5-18.9,19-18.9s19,8.5,19,18.9
		C791.4,531.2,783.4,539.1,773.3,540z"/>
	<path class="st0" d="M739.1,678.1c-7.1-0.5-14,1.8-19.4,6.4c-5.3,4.6-8.6,11.2-9.1,18.2v87c0,14.6,11.9,26.5,26.6,26.5h1.9
		c15,0,27.5-11.6,28.5-26.5v-87C765.7,688.6,753.4,678,739.1,678.1z"/>
	<path class="st0" d="M321.4,719.8H29.1c-15.7,0-28.5,12.7-28.5,28.4s12.7,28.4,28.5,28.4h292.4c15.7,0,28.5-12.7,28.5-28.4
		S337.2,719.8,321.4,719.8z"/>
	<path class="st0" d="M321.4,303.5H29.1c-15.7,0-28.5,12.7-28.5,28.4c0,15.7,12.7,28.4,28.5,28.4h292.4c15.7,0,28.5-12.7,28.5-28.4
		C349.9,316.2,337.2,303.5,321.4,303.5z"/>
	<path class="st0" d="M321.4,1022.5H29.1c-15.7,0-28.5,12.7-28.5,28.4c0,15.7,12.7,28.4,28.5,28.4h292.4c15.7,0,28.5-12.7,28.5-28.4
		C349.9,1035.2,337.2,1022.5,321.4,1022.5z"/>
	<path class="st0" d="M321.4,1325.2H29.1c-15.7,0-28.5,12.7-28.5,28.4c0,15.7,12.7,28.4,28.5,28.4h292.4c15.7,0,28.5-12.7,28.5-28.4
		C349.9,1337.9,337.2,1325.2,321.4,1325.2z"/>
	<path class="st0" d="M946,591.1h1.9c15,0,27.5-11.6,28.5-26.5v-87c-1-14.9-13.5-26.5-28.5-26.5c-7.1-0.5-14,1.8-19.4,6.4
		c-5.3,4.6-8.6,11.2-9.1,18.2v87c-0.5,7.3,2,14.6,7.1,20S938.6,591.1,946,591.1z"/>
	<path class="st0" d="M1266.9,672.5c-41.9,0-75.9,33.9-75.9,75.7s34,75.7,75.9,75.7s75.9-33.9,75.9-75.7S1308.8,672.5,1266.9,672.5z
		 M1266.9,767.1c-10.5,0-19-8.5-19-18.9s8.5-18.9,19-18.9c10.5,0,19,8.5,19,18.9C1285,758.2,1277,766.2,1266.9,767.1z"/>
	<path class="st0" d="M911.8,672.5c-41.9,0-75.9,33.9-75.9,75.7s34,75.7,75.9,75.7c41.9,0,75.9-33.9,75.9-75.7
		S953.8,672.5,911.8,672.5z M925.9,762.2c-3.7,3.7-8.9,5.5-14.1,4.9c-10.5,0-19-8.5-19-18.9s8.5-18.9,19-18.9c10.5,0,19,8.5,19,18.9
		C931.4,753.3,929.6,758.5,925.9,762.2z"/>
	<path class="st0" d="M1120.7,445.4c-41.9,0-75.9,33.9-75.9,75.7c0,41.8,34,75.7,75.9,75.7s75.9-33.9,75.9-75.7
		C1196.6,479.3,1162.6,445.4,1120.7,445.4z M1134.8,535.1c-3.7,3.7-8.9,5.5-14.1,4.9c-10.5,0-19-8.5-19-18.9s8.5-18.9,19-18.9
		c10.5,0,19,8.5,19,18.9C1140.3,526.3,1138.5,531.5,1134.8,535.1z"/>
	<path class="st0" d="M1088.4,678.1h-1.9c-15,0-27.5,11.6-28.5,26.5v87c1,14.9,13.5,26.5,28.5,26.5c7.1,0.5,14-1.8,19.4-6.4
		c5.3-4.6,8.6-11.2,9.1-18.2v-87c0.5-7.3-2-14.6-7.1-20C1102.9,681.2,1095.8,678.1,1088.4,678.1z"/>
	<path class="st0" d="M1295.3,591.1c7.1,0.5,14-1.8,19.4-6.4s8.6-11.2,9.1-18.2v-87c0-14.6-11.9-26.5-26.6-26.5h-1.9
		c-15,0-27.5,11.6-28.5,26.5v87C1268.8,580.7,1281,591.2,1295.3,591.1z"/>
	<path class="st0" d="M1900.4,1383.2l-298.7-298.7h237.8c15.8,0,28.5-12.8,28.5-28.5s-12.8-28.5-28.5-28.5h-294.9l-28.5-28.5
		c49.3-64.9,84.3-139.4,102.7-218.8h220.7c15.8,0,28.5-12.8,28.5-28.5s-12.8-28.5-28.5-28.5h-209.3c5.4-31.4,7.9-63.3,7.6-95.1
		C1637.8,281.1,1356.7,0,1009.9,0S382,281.1,382,627.9s281.1,627.9,627.9,627.9c133.4-0.8,263.1-43.4,371-121.8l197.9,197.9H656
		c-15.8,0-28.5,12.8-28.5,28.5s12.8,28.5,28.5,28.5h979.9l129.4,129.4c17.9,17.2,41.8,26.8,66.6,26.6c24.2,1,47.9-7.6,65.7-24
		c17.8-16.4,28.4-39.3,29.4-63.5v-7.6C1927.1,1425,1917.6,1401.1,1900.4,1383.2z M1009.9,1198.6c-315.3,0-570.8-255.5-570.8-570.8
		S694.6,57.1,1009.9,57.1s570.8,255.5,570.8,570.8S1325.1,1198.6,1009.9,1198.6z M1865.7,1451.4c-1.4,10-6.8,19-14.8,25.1
		c-13.7,9.6-31.9,9.6-45.7,0l-376.7-376.7l53.3-53.3l376.7,376.7C1864.6,1431.2,1867.2,1441.4,1865.7,1451.4z"/>
	<path class="st0" d="M1009,165c-188.1,0-357.6,113.3-429.6,287s-32.2,373.8,100.8,506.7s333,172.8,506.7,100.8
		c173.8-72,287-241.5,287-429.6C1474,373.2,1265.8,165,1009,165z M1009,1038C783.6,1038,601,855.4,601,630S783.6,221.9,1009,221.9
		s408.1,182.7,408.1,408.1S1234.4,1038,1009,1038z"/>
</g>
</svg>
